# Blender 3.1.0
# www.blender.org
mtllib scene.mtl
o lawn
v 0.000000 0.000000 -25.000000
v 0.000000 0.000000 -24.900000
v 0.000000 8.000000 -25.000000
v 0.000000 8.000000 -24.900000
v 4.877258 0.000000 -24.519630
v 4.857749 0.000000 -24.421553
v 4.877258 8.000000 -24.519630
v 4.857749 8.000000 -24.421553
v 9.567086 0.000000 -23.096987
v 9.528818 0.000000 -23.004599
v 9.567086 8.000000 -23.096987
v 9.528818 8.000000 -23.004599
v 13.889256 0.000000 -20.786739
v 13.833698 0.000000 -20.703592
v 13.889256 8.000000 -20.786739
v 13.833698 8.000000 -20.703592
v 17.677670 0.000000 -17.677670
v 17.606958 0.000000 -17.606958
v 17.677670 8.000000 -17.677670
v 17.606958 8.000000 -17.606958
v 20.786739 0.000000 -13.889256
v 20.703592 0.000000 -13.833698
v 20.786739 8.000000 -13.889256
v 20.703592 8.000000 -13.833698
v 23.096987 0.000000 -9.567085
v 23.004599 0.000000 -9.528817
v 23.096987 8.000000 -9.567085
v 23.004599 8.000000 -9.528817
v 24.421553 0.000000 -4.857750
v 24.519630 0.000000 -4.877259
v 24.519630 8.000000 -4.877259
v 24.421553 8.000000 -4.857750
v 25.000000 0.000000 0.000001
v 24.900000 0.000000 0.000001
v 25.000000 8.000000 0.000001
v 24.900000 8.000000 0.000001
v 24.421553 0.000000 4.857749
v 24.519630 0.000000 4.877258
v 24.519630 8.000000 4.877258
v 24.421553 8.000000 4.857749
v 23.096989 0.000000 9.567085
v 23.004601 0.000000 9.528816
v 23.096989 8.000000 9.567085
v 23.004601 8.000000 9.528816
v 20.786741 0.000000 13.889255
v 20.703594 0.000000 13.833697
v 20.703594 8.000000 13.833697
v 20.786741 8.000000 13.889255
v 17.606958 0.000000 17.606958
v 17.677670 0.000000 17.677670
v 17.606958 8.000000 17.606958
v 17.677670 8.000000 17.677670
v 13.889255 0.000000 20.786741
v 13.833697 0.000000 20.703594
v 13.833697 8.000000 20.703594
v 13.889255 8.000000 20.786741
v 9.567087 0.000000 23.096987
v 9.528819 0.000000 23.004599
v 9.528819 8.000000 23.004599
v 9.567087 8.000000 23.096987
v 4.877258 0.000000 24.519632
v 4.857749 0.000000 24.421553
v 4.857749 8.000000 24.421553
v 4.877258 8.000000 24.519632
v -0.000002 0.000000 24.900000
v -0.000002 0.000000 25.000000
v -0.000002 8.000000 24.900000
v -0.000002 8.000000 25.000000
v -4.857747 0.000000 24.421553
v -4.877256 0.000000 24.519632
v -4.877256 8.000000 24.519632
v -4.857747 8.000000 24.421553
v -9.528817 0.000000 23.004599
v -9.567085 0.000000 23.096987
v -9.528817 8.000000 23.004599
v -9.567085 8.000000 23.096987
v -13.833700 0.000000 20.703592
v -13.889257 0.000000 20.786739
v -13.833700 8.000000 20.703592
v -13.889257 8.000000 20.786739
v -17.677668 0.000000 17.677671
v -17.606956 0.000000 17.606960
v -17.677668 8.000000 17.677671
v -17.606956 8.000000 17.606960
v -20.786737 0.000000 13.889260
v -20.703590 0.000000 13.833703
v -20.703590 8.000000 13.833703
v -20.786737 8.000000 13.889260
v -23.096987 0.000000 9.567089
v -23.004599 0.000000 9.528821
v -23.004599 8.000000 9.528821
v -23.096987 8.000000 9.567089
v -24.421553 0.000000 4.857750
v -24.519630 0.000000 4.877260
v -24.519630 8.000000 4.877260
v -24.421553 8.000000 4.857750
v -24.900000 0.000000 -0.000000
v -25.000000 0.000000 -0.000000
v -24.900000 8.000000 -0.000000
v -25.000000 8.000000 -0.000000
v -24.421553 0.000000 -4.857751
v -24.519630 0.000000 -4.877260
v -24.421553 8.000000 -4.857751
v -24.519630 8.000000 -4.877260
v -23.004597 0.000000 -9.528822
v -23.096987 0.000000 -9.567090
v -23.004597 8.000000 -9.528822
v -23.096987 8.000000 -9.567090
v -20.703596 0.000000 -13.833694
v -20.786743 0.000000 -13.889252
v -20.703596 8.000000 -13.833694
v -20.786743 8.000000 -13.889252
v -17.606962 0.000000 -17.606956
v -17.677671 0.000000 -17.677668
v -17.606962 8.000000 -17.606956
v -17.677671 8.000000 -17.677668
v -13.889257 0.000000 -20.786739
v -13.833700 0.000000 -20.703592
v -13.889257 8.000000 -20.786739
v -13.833700 8.000000 -20.703592
v -9.567085 0.000000 -23.096989
v -9.528817 0.000000 -23.004601
v -9.567085 8.000000 -23.096989
v -9.528817 8.000000 -23.004601
v -4.857747 0.000000 -24.421553
v -4.877256 0.000000 -24.519632
v -4.877256 8.000000 -24.519632
v -4.857747 8.000000 -24.421553
v 0.000000 -2.000000 -25.000000
v 0.000000 0.000000 -25.000000
v 4.877258 -2.000000 -24.519630
v 4.877258 0.000000 -24.519630
v 9.567086 -2.000000 -23.096987
v 9.567086 0.000000 -23.096987
v 13.889256 -2.000000 -20.786739
v 13.889256 0.000000 -20.786739
v 17.677670 -2.000000 -17.677670
v 17.677670 0.000000 -17.677670
v 20.786739 -2.000000 -13.889256
v 20.786739 0.000000 -13.889256
v 23.096987 -2.000000 -9.567085
v 23.096987 0.000000 -9.567085
v 24.519630 -2.000000 -4.877259
v 24.519630 0.000000 -4.877259
v 25.000000 -2.000000 0.000001
v 25.000000 0.000000 0.000001
v 24.519630 -2.000000 4.877258
v 24.519630 0.000000 4.877258
v 23.096989 -2.000000 9.567085
v 23.096989 0.000000 9.567085
v 20.786741 -2.000000 13.889255
v 20.786741 0.000000 13.889255
v 17.677670 -2.000000 17.677670
v 17.677670 0.000000 17.677670
v 13.889255 -2.000000 20.786741
v 13.889255 0.000000 20.786741
v 9.567087 -2.000000 23.096987
v 9.567087 0.000000 23.096987
v 4.877258 -2.000000 24.519632
v 4.877258 0.000000 24.519632
v -0.000002 -2.000000 25.000000
v -0.000002 0.000000 25.000000
v -4.877256 -2.000000 24.519632
v -4.877256 0.000000 24.519632
v -9.567085 -2.000000 23.096987
v -9.567085 0.000000 23.096987
v -13.889257 -2.000000 20.786739
v -13.889257 0.000000 20.786739
v -17.677668 -2.000000 17.677671
v -17.677668 0.000000 17.677671
v -20.786737 -2.000000 13.889260
v -20.786737 0.000000 13.889260
v -23.096987 -2.000000 9.567089
v -23.096987 0.000000 9.567089
v -24.519630 -2.000000 4.877260
v -24.519630 0.000000 4.877260
v -25.000000 -2.000000 -0.000000
v -25.000000 0.000000 -0.000000
v -24.519630 -2.000000 -4.877260
v -24.519630 0.000000 -4.877260
v -23.096987 -2.000000 -9.567090
v -23.096987 0.000000 -9.567090
v -20.786743 -2.000000 -13.889252
v -20.786743 0.000000 -13.889252
v -17.677671 -2.000000 -17.677668
v -17.677671 0.000000 -17.677668
v -13.889257 -2.000000 -20.786739
v -13.889257 0.000000 -20.786739
v -9.567085 -2.000000 -23.096989
v -9.567085 0.000000 -23.096989
v -4.877256 -2.000000 -24.519632
v -4.877256 0.000000 -24.519632
v -17.677670 0.000000 17.677670
v -17.677670 -2.000000 -17.677670
vn 2.4504 -0.0000 -24.8796
vn 7.2571 -0.0000 -23.9235
vn 11.7849 -0.0000 -22.0480
vn 15.8598 -0.0000 -19.3253
vn 19.3253 -0.0000 -15.8598
vn 22.0480 -0.0000 -11.7849
vn 23.9235 -0.0000 -7.2571
vn 24.8796 -0.0000 -2.4504
vn 24.8796 -0.0000 2.4504
vn 23.9235 -0.0000 7.2571
vn 22.0480 -0.0000 11.7849
vn 19.3253 -0.0000 15.8598
vn 15.8598 -0.0000 19.3253
vn 11.7849 -0.0000 22.0480
vn 7.2571 -0.0000 23.9235
vn 2.4504 -0.0000 24.8796
vn -2.4504 -0.0000 24.8796
vn -7.2571 -0.0000 23.9235
vn -11.7849 -0.0000 22.0480
vn -15.8598 -0.0000 19.3253
vn -19.3253 -0.0000 15.8598
vn -22.0480 -0.0000 11.7849
vn -23.9235 -0.0000 7.2571
vn -24.8796 -0.0000 2.4504
vn -24.8796 -0.0000 -2.4504
vn -23.9235 -0.0000 -7.2571
vn -22.0480 -0.0000 -11.7849
vn -19.3253 -0.0000 -15.8598
vn -15.8598 -0.0000 -19.3253
vn -11.7849 -0.0000 -22.0480
vn -0.0002 4.0000 -0.0000
vn -0.0001 4.0000 -0.0000
vn -7.2571 -0.0000 -23.9235
vn -2.4504 -0.0000 -24.8796
vn 0.0005 -4.0000 -0.0000
vn -0.0001 -4.0000 -0.0000
vn -0.0000 4.0000 -0.0000
vn -0.0000 -4.0000 -0.0000
vt 1.000000 0.500000
vt 0.000000 0.500000
vt 0.750000 0.490000
vt 0.750000 0.489040
vt 1.000000 0.500000
vt 0.000000 0.500000
vt 1.000000 1.000000
vt 0.250000 0.490000
vt 0.000000 1.000000
vt 0.250000 0.489040
vt 1.000000 1.000000
vt 0.000000 1.000000
vt 0.968750 0.500000
vt 0.796822 0.485388
vt 0.796635 0.484447
vt 0.968750 0.500000
vt 0.968750 1.000000
vt 0.296822 0.485388
vt 0.296634 0.484447
vt 0.968750 1.000000
vt 0.937500 0.500000
vt 0.841844 0.471731
vt 0.841477 0.470844
vt 0.937500 0.500000
vt 0.937500 1.000000
vt 0.341844 0.471731
vt 0.341477 0.470844
vt 0.937500 1.000000
vt 0.906250 0.500000
vt 0.883337 0.449553
vt 0.882804 0.448754
vt 0.906250 0.500000
vt 0.906250 1.000000
vt 0.383337 0.449553
vt 0.382803 0.448755
vt 0.906250 1.000000
vt 0.875000 0.500000
vt 0.919706 0.419706
vt 0.919027 0.419027
vt 0.875000 0.500000
vt 0.875000 1.000000
vt 0.419706 0.419706
vt 0.419027 0.419027
vt 0.875000 1.000000
vt 0.843750 0.500000
vt 0.949553 0.383337
vt 0.948754 0.382803
vt 0.843750 0.500000
vt 0.843750 1.000000
vt 0.449553 0.383337
vt 0.448755 0.382803
vt 0.843750 1.000000
vt 0.812500 0.500000
vt 0.971731 0.341844
vt 0.970844 0.341477
vt 0.812500 0.500000
vt 0.812500 1.000000
vt 0.471731 0.341844
vt 0.470844 0.341477
vt 0.812500 1.000000
vt 0.984447 0.296634
vt 0.781250 0.500000
vt 0.781250 0.500000
vt 0.985388 0.296822
vt 0.781250 1.000000
vt 0.485388 0.296822
vt 0.484447 0.296634
vt 0.781250 1.000000
vt 0.750000 0.500000
vt 0.990000 0.250000
vt 0.989040 0.250000
vt 0.750000 0.500000
vt 0.750000 1.000000
vt 0.490000 0.250000
vt 0.489040 0.250000
vt 0.750000 1.000000
vt 0.984447 0.203366
vt 0.718750 0.500000
vt 0.718750 0.500000
vt 0.985388 0.203178
vt 0.718750 1.000000
vt 0.485388 0.203178
vt 0.484447 0.203366
vt 0.718750 1.000000
vt 0.687500 0.500000
vt 0.971731 0.158156
vt 0.970844 0.158523
vt 0.687500 0.500000
vt 0.687500 1.000000
vt 0.471731 0.158156
vt 0.470844 0.158523
vt 0.687500 1.000000
vt 0.656250 0.500000
vt 0.949553 0.116663
vt 0.948755 0.117197
vt 0.656250 0.500000
vt 0.448755 0.117197
vt 0.656250 1.000000
vt 0.656250 1.000000
vt 0.449553 0.116663
vt 0.919027 0.080973
vt 0.625000 0.500000
vt 0.625000 0.500000
vt 0.919706 0.080294
vt 0.419027 0.080973
vt 0.625000 1.000000
vt 0.625000 1.000000
vt 0.419706 0.080294
vt 0.593750 0.500000
vt 0.883337 0.050447
vt 0.882804 0.051245
vt 0.593750 0.500000
vt 0.382804 0.051245
vt 0.593750 1.000000
vt 0.593750 1.000000
vt 0.383337 0.050447
vt 0.562500 0.500000
vt 0.841844 0.028269
vt 0.841477 0.029156
vt 0.562500 0.500000
vt 0.341477 0.029156
vt 0.562500 1.000000
vt 0.562500 1.000000
vt 0.341844 0.028269
vt 0.531250 0.500000
vt 0.796822 0.014612
vt 0.796634 0.015553
vt 0.531250 0.500000
vt 0.296634 0.015553
vt 0.531250 1.000000
vt 0.531250 1.000000
vt 0.296822 0.014612
vt 0.750000 0.010960
vt 0.500000 0.500000
vt 0.500000 0.500000
vt 0.750000 0.010000
vt 0.250000 0.010960
vt 0.500000 1.000000
vt 0.500000 1.000000
vt 0.250000 0.010000
vt 0.703366 0.015553
vt 0.468750 0.500000
vt 0.468750 0.500000
vt 0.703178 0.014612
vt 0.468750 1.000000
vt 0.203178 0.014612
vt 0.203366 0.015553
vt 0.468750 1.000000
vt 0.658523 0.029156
vt 0.437500 0.500000
vt 0.437500 0.500000
vt 0.658156 0.028269
vt 0.158523 0.029156
vt 0.437500 1.000000
vt 0.437500 1.000000
vt 0.158156 0.028269
vt 0.617196 0.051246
vt 0.406250 0.500000
vt 0.406250 0.500000
vt 0.616663 0.050447
vt 0.117196 0.051246
vt 0.406250 1.000000
vt 0.406250 1.000000
vt 0.116663 0.050447
vt 0.375000 0.500000
vt 0.580294 0.080294
vt 0.580973 0.080973
vt 0.375000 0.500000
vt 0.375000 1.000000
vt 0.080294 0.080294
vt 0.080973 0.080973
vt 0.375000 1.000000
vt 0.343750 0.500000
vt 0.550447 0.116663
vt 0.551246 0.117196
vt 0.343750 0.500000
vt 0.051246 0.117196
vt 0.343750 1.000000
vt 0.343750 1.000000
vt 0.050447 0.116663
vt 0.312500 0.500000
vt 0.528269 0.158156
vt 0.529156 0.158523
vt 0.312500 0.500000
vt 0.029156 0.158523
vt 0.312500 1.000000
vt 0.312500 1.000000
vt 0.028269 0.158156
vt 0.515553 0.203366
vt 0.281250 0.500000
vt 0.281250 0.500000
vt 0.514612 0.203178
vt 0.281250 1.000000
vt 0.014612 0.203178
vt 0.015553 0.203366
vt 0.281250 1.000000
vt 0.510960 0.250000
vt 0.250000 0.500000
vt 0.250000 0.500000
vt 0.510000 0.250000
vt 0.010960 0.250000
vt 0.250000 1.000000
vt 0.250000 1.000000
vt 0.010000 0.250000
vt 0.515553 0.296634
vt 0.218750 0.500000
vt 0.218750 0.500000
vt 0.514612 0.296822
vt 0.015553 0.296634
vt 0.218750 1.000000
vt 0.218750 1.000000
vt 0.014612 0.296822
vt 0.529156 0.341477
vt 0.187500 0.500000
vt 0.187500 0.500000
vt 0.528269 0.341844
vt 0.029156 0.341477
vt 0.187500 1.000000
vt 0.187500 1.000000
vt 0.028269 0.341844
vt 0.551245 0.382803
vt 0.156250 0.500000
vt 0.156250 0.500000
vt 0.550447 0.383337
vt 0.051245 0.382803
vt 0.156250 1.000000
vt 0.156250 1.000000
vt 0.050447 0.383337
vt 0.580973 0.419027
vt 0.125000 0.500000
vt 0.125000 0.500000
vt 0.580294 0.419706
vt 0.080973 0.419027
vt 0.125000 1.000000
vt 0.125000 1.000000
vt 0.080294 0.419706
vt 0.093750 0.500000
vt 0.616663 0.449553
vt 0.617197 0.448755
vt 0.093750 0.500000
vt 0.093750 1.000000
vt 0.116663 0.449553
vt 0.117196 0.448755
vt 0.093750 1.000000
vt 0.062500 0.500000
vt 0.658156 0.471731
vt 0.658523 0.470844
vt 0.062500 0.500000
vt 0.158156 0.471731
vt 0.062500 1.000000
vt 0.158523 0.470844
vt 0.062500 1.000000
vt 0.703366 0.484447
vt 0.031250 0.500000
vt 0.031250 0.500000
vt 0.703178 0.485388
vt 0.203178 0.485388
vt 0.031250 1.000000
vt 0.203366 0.484447
vt 0.031250 1.000000
vt 0.250000 0.500000
vt 1.000000 0.500000
vt 0.000000 0.500000
vt 0.750000 0.500000
vt 1.000000 1.000000
vt 0.000000 1.000000
vt 0.274386 0.502402
vt 0.968750 0.500000
vt 0.725614 0.502402
vt 0.968750 1.000000
vt 0.297835 0.509515
vt 0.937500 0.500000
vt 0.702165 0.509515
vt 0.937500 1.000000
vt 0.319446 0.521066
vt 0.906250 0.500000
vt 0.680554 0.521066
vt 0.906250 1.000000
vt 0.338388 0.536612
vt 0.875000 0.500000
vt 0.661612 0.536612
vt 0.875000 1.000000
vt 0.353934 0.555554
vt 0.843750 0.500000
vt 0.646066 0.555554
vt 0.843750 1.000000
vt 0.365485 0.577165
vt 0.812500 0.500000
vt 0.634515 0.577165
vt 0.812500 1.000000
vt 0.372598 0.600614
vt 0.781250 0.500000
vt 0.627402 0.600614
vt 0.781250 1.000000
vt 0.375000 0.625000
vt 0.750000 0.500000
vt 0.625000 0.625000
vt 0.750000 1.000000
vt 0.372598 0.649386
vt 0.718750 0.500000
vt 0.627402 0.649386
vt 0.718750 1.000000
vt 0.365485 0.672835
vt 0.687500 0.500000
vt 0.634515 0.672835
vt 0.687500 1.000000
vt 0.353934 0.694446
vt 0.656250 0.500000
vt 0.646066 0.694446
vt 0.656250 1.000000
vt 0.338388 0.713388
vt 0.625000 0.500000
vt 0.661612 0.713388
vt 0.625000 1.000000
vt 0.319446 0.728934
vt 0.593750 0.500000
vt 0.680554 0.728934
vt 0.593750 1.000000
vt 0.297835 0.740485
vt 0.562500 0.500000
vt 0.702165 0.740485
vt 0.562500 1.000000
vt 0.274386 0.747598
vt 0.531250 0.500000
vt 0.725614 0.747598
vt 0.531250 1.000000
vt 0.250000 0.750000
vt 0.500000 0.500000
vt 0.750000 0.750000
vt 0.500000 1.000000
vt 0.225614 0.747598
vt 0.468750 0.500000
vt 0.774386 0.747598
vt 0.468750 1.000000
vt 0.202165 0.740485
vt 0.437500 0.500000
vt 0.797835 0.740485
vt 0.437500 1.000000
vt 0.180554 0.728934
vt 0.406250 0.500000
vt 0.819446 0.728934
vt 0.406250 1.000000
vt 0.161612 0.713388
vt 0.375000 0.500000
vt 0.838388 0.713388
vt 0.375000 1.000000
vt 0.146066 0.694446
vt 0.343750 0.500000
vt 0.853934 0.694446
vt 0.343750 1.000000
vt 0.134515 0.672835
vt 0.312500 0.500000
vt 0.865485 0.672835
vt 0.312500 1.000000
vt 0.127402 0.649386
vt 0.281250 0.500000
vt 0.872598 0.649386
vt 0.281250 1.000000
vt 0.125000 0.625000
vt 0.250000 0.500000
vt 0.875000 0.625000
vt 0.250000 1.000000
vt 0.127402 0.600614
vt 0.218750 0.500000
vt 0.872598 0.600614
vt 0.218750 1.000000
vt 0.134515 0.577165
vt 0.187500 0.500000
vt 0.865485 0.577165
vt 0.187500 1.000000
vt 0.146066 0.555554
vt 0.156250 0.500000
vt 0.853934 0.555554
vt 0.156250 1.000000
vt 0.161612 0.536612
vt 0.125000 0.500000
vt 0.838388 0.536612
vt 0.125000 1.000000
vt 0.180554 0.521066
vt 0.093750 0.500000
vt 0.819446 0.521066
vt 0.093750 1.000000
vt 0.202165 0.509515
vt 0.062500 0.500000
vt 0.797835 0.509515
vt 0.062500 1.000000
vt 0.225614 0.502402
vt 0.031250 0.500000
vt 0.774386 0.502402
vt 0.031250 1.000000
vt 0.838388 0.713388
vt 0.375000 1.000000
vt 0.161612 0.536612
vt 0.125000 0.500000
s 0
usemtl Material
f 1/1/1 3/7/1 7/17/1 5/13/1
f 5/13/2 7/17/2 11/25/2 9/21/2
f 9/21/3 11/25/3 15/33/3 13/29/3
f 13/29/4 15/33/4 19/41/4 17/37/4
f 17/37/5 19/41/5 23/49/5 21/45/5
f 21/45/6 23/49/6 27/57/6 25/53/6
f 25/53/7 27/57/7 31/65/7 30/63/7
f 30/63/8 31/65/8 35/73/8 33/69/8
f 33/69/9 35/73/9 39/81/9 38/79/9
f 38/79/10 39/81/10 43/89/10 41/85/10
f 41/85/11 43/89/11 48/99/11 45/93/11
f 45/93/12 48/99/12 52/107/12 50/103/12
f 50/103/13 52/107/13 56/115/13 53/109/13
f 53/109/14 56/115/14 60/123/14 57/117/14
f 57/117/15 60/123/15 64/131/15 61/125/15
f 61/125/16 64/131/16 68/139/16 66/135/16
f 66/135/17 68/139/17 71/145/17 70/143/17
f 70/143/18 71/145/18 76/155/18 74/151/18
f 74/151/19 76/155/19 80/163/19 78/159/19
f 78/159/20 80/163/20 83/169/20 81/165/20
f 81/165/21 83/169/21 88/179/21 85/173/21
f 85/173/22 88/179/22 92/187/22 89/181/22
f 89/181/23 92/187/23 95/193/23 94/191/23
f 94/191/24 95/193/24 100/203/24 98/199/24
f 98/199/25 100/203/25 104/211/25 102/207/25
f 102/207/26 104/211/26 108/219/26 106/215/26
f 106/215/27 108/219/27 112/227/27 110/223/27
f 110/223/28 112/227/28 116/235/28 114/231/28
f 114/231/29 116/235/29 119/241/29 117/237/29
f 117/237/30 119/241/30 123/250/30 121/245/30
f 116/236/31 112/228/31 108/220/31 104/212/31 100/204/31 95/194/31 92/188/31 88/180/31 83/170/31 84/171/31 87/177/31 91/185/31 96/195/31 99/201/31 103/209/31 107/217/31 111/225/31 115/233/31
f 84/171/32 83/170/32 80/164/32 76/156/32 71/146/32 68/140/32 64/132/32 60/124/32 56/116/32 52/108/32 48/100/32 43/90/32 39/82/32 35/74/32 31/66/32 27/58/32 23/50/32 19/42/32 15/34/32 11/26/32 7/18/32 3/8/32 127/257/32 123/249/32 119/242/32 116/236/32 115/233/32 120/243/32 124/251/32 128/259/32 4/10/32 8/19/32 12/27/32 16/35/32 20/43/32 24/51/32 28/59/32 32/67/32 36/75/32 40/83/32 44/91/32 47/97/32 51/105/32 55/113/32 59/121/32 63/129/32 67/137/32 72/147/32 75/153/32 79/161/32
f 121/245/33 123/250/33 127/258/33 126/255/33
f 126/255/34 127/258/34 3/9/34 1/2/34
f 49/101/35 50/104/35 53/110/35 57/118/35 61/126/35 66/136/35 70/144/35 74/152/35 78/160/35 81/166/35 85/174/35 89/182/35 94/192/35 98/200/35 102/208/35 106/216/35 110/224/35 114/232/35 113/229/35 109/221/35 105/213/35 101/205/35 97/197/35 93/189/35 90/183/35 86/175/35 82/167/35 77/157/35 73/149/35 69/141/35 65/133/35 62/127/35 58/119/35 54/111/35
f 113/229/36 114/232/36 117/238/36 121/246/36 126/256/36 1/3/36 5/14/36 9/22/36 13/30/36 17/38/36 21/46/36 25/54/36 30/64/36 33/70/36 38/80/36 41/86/36 45/94/36 50/104/36 49/101/36 46/95/36 42/87/36 37/77/36 34/71/36 29/61/36 26/55/36 22/47/36 18/39/36 14/31/36 10/23/36 6/15/36 2/4/36 125/253/36 122/247/36 118/239/36
f 4/11/17 2/5/17 6/16/17 8/20/17
f 8/20/18 6/16/18 10/24/18 12/28/18
f 12/28/19 10/24/19 14/32/19 16/36/19
f 18/40/20 20/44/20 16/36/20 14/32/20
f 18/40/21 22/48/21 24/52/21 20/44/21
f 24/52/22 22/48/22 26/56/22 28/60/22
f 32/68/23 28/60/23 26/56/23 29/62/23
f 36/76/24 32/68/24 29/62/24 34/72/24
f 34/72/25 37/78/25 40/84/25 36/76/25
f 40/84/26 37/78/26 42/88/26 44/92/26
f 44/92/27 42/88/27 46/96/27 47/98/27
f 51/106/28 47/98/28 46/96/28 49/102/28
f 49/102/29 54/112/29 55/114/29 51/106/29
f 55/114/30 54/112/30 58/120/30 59/122/30
f 63/130/33 59/122/33 58/120/33 62/128/33
f 67/138/34 63/130/34 62/128/34 65/134/34
f 65/134/1 69/142/1 72/148/1 67/138/1
f 75/154/2 72/148/2 69/142/2 73/150/2
f 75/154/3 73/150/3 77/158/3 79/162/3
f 84/172/4 79/162/4 77/158/4 82/168/4
f 84/172/5 82/168/5 86/176/5 87/178/5
f 87/178/6 86/176/6 90/184/6 91/186/6
f 93/190/7 96/196/7 91/186/7 90/184/7
f 97/198/8 99/202/8 96/196/8 93/190/8
f 99/202/9 97/198/9 101/206/9 103/210/9
f 105/214/10 107/218/10 103/210/10 101/206/10
f 107/218/11 105/214/11 109/222/11 111/226/11
f 113/230/12 115/234/12 111/226/12 109/222/12
f 115/234/13 113/230/13 118/240/13 120/244/13
f 120/244/14 118/240/14 122/248/14 124/252/14
f 125/254/15 128/260/15 124/252/15 122/248/15
f 2/6/16 4/12/16 128/260/16 125/254/16
f 136/277/37 134/273/37 132/269/37 130/264/37 192/389/37 190/385/37 188/381/37 186/377/37 184/373/37 182/369/37 180/365/37 178/361/37 176/357/37 174/353/37 172/349/37 193/391/37 138/281/37
f 193/391/37 170/345/37 168/341/37 166/337/37 164/333/37 162/329/37 160/325/37 158/321/37 156/317/37 154/313/37 152/309/37 150/305/37 148/301/37 146/297/37 144/293/37 142/289/37 140/285/37 138/281/37
f 187/379/38 189/383/38 191/387/38 129/261/38 131/267/38 133/271/38 135/275/38 137/279/38 139/283/38 141/287/38 143/291/38 145/295/38 147/299/38 149/303/38 151/307/38 153/311/38 194/393/38
f 155/315/38 157/319/38 159/323/38 161/327/38 163/331/38 165/335/38 167/339/38 169/343/38 171/347/38 173/351/38 175/355/38 177/359/38 179/363/38 181/367/38 183/371/38 185/375/38 194/393/38 153/311/38
f 132/270/1 131/268/1 129/262/1 130/265/1
f 131/268/2 132/270/2 134/274/2 133/272/2
f 133/272/3 134/274/3 136/278/3 135/276/3
f 135/276/4 136/278/4 138/282/4 137/280/4
f 137/280/5 138/282/5 140/286/5 139/284/5
f 139/284/6 140/286/6 142/290/6 141/288/6
f 141/288/7 142/290/7 144/294/7 143/292/7
f 145/296/8 143/292/8 144/294/8 146/298/8
f 146/298/9 148/302/9 147/300/9 145/296/9
f 147/300/10 148/302/10 150/306/10 149/304/10
f 149/304/11 150/306/11 152/310/11 151/308/11
f 151/308/12 152/310/12 154/314/12 153/312/12
f 153/312/13 154/314/13 156/318/13 155/316/13
f 155/316/14 156/318/14 158/322/14 157/320/14
f 157/320/15 158/322/15 160/326/15 159/324/15
f 161/328/16 159/324/16 160/326/16 162/330/16
f 162/330/17 164/334/17 163/332/17 161/328/17
f 163/332/18 164/334/18 166/338/18 165/336/18
f 165/336/19 166/338/19 168/342/19 167/340/19
f 167/340/20 168/342/20 170/346/20 169/344/20
f 169/344/21 170/346/21 193/392/21 172/350/21 171/348/21
f 171/348/22 172/350/22 174/354/22 173/352/22
f 173/352/23 174/354/23 176/358/23 175/356/23
f 175/356/24 176/358/24 178/362/24 177/360/24
f 180/366/25 179/364/25 177/360/25 178/362/25
f 179/364/26 180/366/26 182/370/26 181/368/26
f 181/368/27 182/370/27 184/374/27 183/372/27
f 183/372/28 184/374/28 186/378/28 185/376/28
f 185/376/29 186/378/29 188/382/29 187/380/29 194/394/29
f 187/380/30 188/382/30 190/386/30 189/384/30
f 189/384/33 190/386/33 192/390/33 191/388/33
f 191/388/34 192/390/34 130/266/34 129/263/34
